<?xml version="1.0" encoding="utf-8"?>
<!-- Generator: Adobe Illustrator 25.4.1, SVG Export Plug-In . SVG Version: 6.00 Build 0)  -->
<svg version="1.1" id="Layer_1" xmlns="http://www.w3.org/2000/svg" xmlns:xlink="http://www.w3.org/1999/xlink" x="0px" y="0px"
	 viewBox="0 0 1080 1080" style="enable-background:new 0 0 1080 1080;" xml:space="preserve">
<style type="text/css">
	.st0{fill:#F4DFCF;}
	.st1{fill:#70A4D4;}
	.st2{fill:#FDF7F3;}
	.st3{fill:#3E417F;}
	.st4{fill:#E4A750;}
	.st5{fill:none;stroke:#D68A50;stroke-width:3.3567;stroke-miterlimit:10;}
	.st6{fill:#824B30;}
	.st7{fill:#3F2424;}
	.st8{fill:#513030;}
	.st9{fill:#604343;}
	.st10{fill:#F6E7DE;}
	.st11{fill:#CEBAAF;}
	.st12{fill:none;stroke:#D68A50;stroke-width:3.7116;stroke-miterlimit:10;}
	.st13{fill:#78422B;}
	.st14{fill:#AB6134;}
	.st15{fill:none;stroke:#34B77E;stroke-width:0.8063;stroke-linecap:round;stroke-linejoin:round;stroke-miterlimit:10;}
	.st16{fill:#34B77E;}
	.st17{fill:none;stroke:#34B77E;stroke-width:0.7392;stroke-linecap:round;stroke-linejoin:round;stroke-miterlimit:10;}
	.st18{fill:none;stroke:#00FCFF;stroke-width:0.8321;stroke-linecap:round;stroke-linejoin:round;stroke-miterlimit:10;}
	.st19{fill:none;stroke:#00FCFF;stroke-width:0.8202;stroke-linecap:round;stroke-linejoin:round;stroke-miterlimit:10;}
	.st20{fill:none;stroke:#E1F0FF;stroke-width:0.7392;stroke-linecap:round;stroke-linejoin:round;stroke-miterlimit:10;}
	.st21{fill:none;stroke:#E1F0FF;stroke-width:0.8202;stroke-linecap:round;stroke-linejoin:round;stroke-miterlimit:10;}
	.st22{fill:none;stroke:#FF4F92;stroke-width:0.7392;stroke-linecap:round;stroke-linejoin:round;stroke-miterlimit:10;}
	.st23{fill:none;stroke:#FF4F92;stroke-width:0.965;stroke-linecap:round;stroke-linejoin:round;stroke-miterlimit:10;}
	.st24{fill:none;stroke:#FF8B00;stroke-width:0.8321;stroke-linecap:round;stroke-linejoin:round;stroke-miterlimit:10;}
	.st25{fill:#F68C77;}
	.st26{fill:#F18875;}
	.st27{fill:#1A1D3E;}
	.st28{fill:#343A75;}
	.st29{fill:#1C1E3B;}
	.st30{fill:#3D4180;}
	.st31{fill:#4C2C17;}
	.st32{fill:#AFA19B;}
	.st33{fill:#686868;}
	.st34{fill:#F5C282;}
	.st35{fill:#FFFFFF;}
</style>
<g>
	<g>
		<polygon class="st0" points="324.23,358.35 39.35,393.33 39.35,124.23 324.23,89.25 		"/>
		<polygon class="st1" points="154.67,188.82 120.37,193.04 120.37,155.38 154.67,151.17 		"/>
		<polygon class="st1" points="272.77,218.03 250.34,220.79 250.34,195.48 272.77,192.73 		"/>
		<polygon class="st2" points="248.04,186.56 196.28,192.92 196.28,122.75 248.04,116.4 		"/>
		<polygon class="st1" points="237.12,262.09 213.54,264.99 213.54,247.16 237.12,244.26 		"/>
		<polygon class="st2" points="236.54,347.86 184.78,354.21 184.78,281.75 236.54,275.39 		"/>
		<polygon class="st2" points="150.85,320.99 93.91,327.99 93.91,256.67 150.85,249.68 		"/>
		<polygon class="st3" points="155.78,371.95 128.62,367.77 136.14,339.68 163.3,343.86 		"/>
		<polygon class="st4" points="114.62,225.95 82.41,229.9 82.41,197.7 114.62,193.74 		"/>
		<polygon class="st4" points="277.37,172.61 244.59,176.63 244.59,143.85 277.37,139.83 		"/>
		<polygon class="st4" points="101.39,345.47 77.23,348.44 77.23,316.23 101.39,313.26 		"/>
		<polygon class="st3" points="256.67,307.43 227.91,310.96 227.91,278.75 256.67,275.22 		"/>
	</g>
	<path class="st5" d="M533.98,514.95l-2.81,326.25c-0.09,10.96,8.17,20.18,19.07,21.29l210.95,21.48
		c12.47,1.27,23.32-8.49,23.37-21.02l1.49-362.2"/>
	<polygon class="st6" points="13.18,574.61 536.52,467.44 865.3,489.84 362.84,613.72 	"/>
	<path class="st7" d="M476.62,509.47c0,0-21.71-0.86-28.9-11.88c-7.19-11.02,12.73-58.81,12.73-58.81l-57.71,11.78
		c0,0-19.92,47.78-12.73,58.81s24.93,12.48,24.93,12.48l9.8-1.07L476.62,509.47z"/>
	<path class="st8" d="M482.62,509c0,0-21.71-0.86-28.9-11.88s12.73-58.81,12.73-58.81l-57.71,11.78c0,0-19.92,47.79-12.73,58.81
		c7.19,11.02,28.9,11.88,28.9,11.88L482.62,509z"/>
	<polygon class="st9" points="290.36,257.38 578.47,229.54 578.24,427.78 291.75,472.57 	"/>
	<polygon class="st10" points="291.53,444.67 291.75,478.68 578.47,435.53 578.47,406.07 	"/>
	<polygon class="st11" points="290.36,257.38 278.64,267.04 280.45,470.12 291.75,478.68 	"/>
	<path class="st11" d="M448.01,439.98c-0.38,4.31-3.67,7.54-7.35,7.22c-3.68-0.32-6.35-4.08-5.97-8.39
		c0.38-4.31,3.67-7.54,7.35-7.22C445.71,431.91,448.39,435.67,448.01,439.98z"/>
	<path class="st12" d="M48.32,589.07l-1.27,409.79c-0.03,10.1,7.64,18.56,17.69,19.51l239.24,22.79
		c11.44,1.09,21.35-7.88,21.39-19.37l1.67-408.52"/>
	<g>
		<polygon class="st7" points="354,540.99 354,547.79 464.38,555.7 642.72,518.36 642.95,512.85 539.32,511.07 		"/>
		<polygon class="st8" points="354,540.99 544.44,504.67 642.95,512.85 463.5,549.81 		"/>
	</g>
	<path class="st13" d="M13.39,574.57l348.06,21.05v30.62L14.78,605.19C14.78,605.19,12,573.18,13.39,574.57z"/>
	<polygon class="st14" points="865.3,489.84 361.45,595.62 361.45,626.24 865.3,512.11 	"/>
	<g>
		<polyline class="st15" points="318.76,285.17 308.34,298.55 318.75,308.79 		"/>
		<polyline class="st15" points="344.94,281.26 355.36,291.51 344.95,304.87 		"/>
		<line class="st15" x1="327.44" y1="309.52" x2="335.71" y2="282.64"/>
		<path class="st16" d="M369.37,303.45c0,1.84-1.32,3.53-2.94,3.77c-1.62,0.24-2.94-1.05-2.94-2.89c0-1.84,1.32-3.53,2.94-3.77
			C368.06,300.32,369.37,301.61,369.37,303.45z"/>
		<path class="st16" d="M381.54,301.63c0,1.84-1.32,3.53-2.94,3.77c-1.62,0.24-2.94-1.05-2.94-2.89c0-1.84,1.32-3.53,2.94-3.77
			C380.22,298.5,381.54,299.79,381.54,301.63z"/>
		<path class="st16" d="M393.7,299.81c0,1.84-1.32,3.53-2.94,3.77c-1.62,0.24-2.94-1.05-2.94-2.89c0-1.84,1.32-3.53,2.94-3.77
			C392.38,296.68,393.7,297.97,393.7,299.81z"/>
		<line class="st17" x1="308.34" y1="332.68" x2="558.25" y2="295.28"/>
		<line class="st18" x1="308.34" y1="347.34" x2="517.02" y2="316.12"/>
		<line class="st19" x1="533.26" y1="313.69" x2="558.25" y2="309.95"/>
		<line class="st19" x1="558.25" y1="326.02" x2="483.93" y2="337.14"/>
		<line class="st20" x1="546.22" y1="251.14" x2="559.08" y2="249.21"/>
		<line class="st21" x1="534.09" y1="267.62" x2="559.08" y2="263.88"/>
		<line class="st21" x1="559.08" y1="279.95" x2="484.76" y2="291.07"/>
		<line class="st18" x1="469.98" y1="339.23" x2="449.51" y2="342.29"/>
		<line class="st18" x1="433.26" y1="344.72" x2="412.8" y2="347.78"/>
		<line class="st18" x1="396.54" y1="350.21" x2="376.08" y2="353.28"/>
		<line class="st18" x1="359.82" y1="355.71" x2="339.36" y2="358.77"/>
		<line class="st22" x1="558.25" y1="345.55" x2="332.82" y2="379.29"/>
		<line class="st18" x1="315.72" y1="362.31" x2="308.34" y2="363.41"/>
		<line class="st18" x1="315.72" y1="381.85" x2="308.34" y2="382.95"/>
		<line class="st18" x1="315.72" y1="401.38" x2="308.34" y2="402.49"/>
		<line class="st18" x1="315.72" y1="420.92" x2="308.34" y2="422.03"/>
		<line class="st23" x1="338.6" y1="397.96" x2="427.39" y2="384.67"/>
		<line class="st23" x1="338.6" y1="417.98" x2="456.38" y2="400.35"/>
		<line class="st24" x1="436.75" y1="383.27" x2="558.25" y2="365.09"/>
		<line class="st24" x1="464.82" y1="399.09" x2="558.25" y2="385.11"/>
	</g>
	<g>
		<path class="st25" d="M523.55,491.37c-5.01,1.87-10.18,3.32-15.44,4.32c-7.91,1.51-15.95-2.19-24-2.06
			c-9.8,0.16-19.04,5.09-26.28,11.7c-7.23,6.62-12.75,14.86-18.19,23.01c8,3.03,17.09,3.09,25.14,0.18
			c6.03-2.18,11.51-5.96,17.81-7.17c5.19-0.99,10.57-0.15,15.81-0.87c6.95-0.96,13.18-4.58,19.5-7.63
			c6.31-3.05,13.32-5.64,20.21-4.33c-0.64-5.16,1.53-10.8-0.92-15.39C534.78,488.65,528.33,489.58,523.55,491.37z"/>
		<path class="st26" d="M648.35,901.04c-1.96,12.14-2.54,24.5-1.71,36.76c0.51,7.57,1.53,15.34-0.57,22.63
			c-9.7-1.75-19.32-3.74-28.68-6.84c-0.38-0.13-0.73-0.76-0.32-0.78c3.78-6.44,5.39-13.52,5.32-20.98
			c-0.07-7.47-1.49-14.85-2.9-22.18c-1.12-5.83-2.24-11.65-3.36-17.47c10.72-0.89,21.52-0.78,32.21,0.33
			C648.7,894.39,648.65,899.15,648.35,901.04z"/>
		<path class="st27" d="M561.37,978.44c10.48,3.08,21.61,2.82,32.54,2.53c5.31-0.14,10.9-0.36,15.44-3.13
			c1.75-1.07,3.35-2.51,5.36-2.9c3.49-0.67,6.59,2.02,9.71,3.72c6.13,3.33,13.52,2.98,20.49,2.55c1.12-0.07,2.35-0.18,3.16-0.97
			c0.68-0.67,0.9-1.66,1.07-2.6c0.83-4.52,1.15-14.65,1.47-19.24c0.25-3.61-0.17-8.1-3.49-9.54c-1.34-0.58-4.81,4.5-15.68,2.71
			c-1.78-0.29-3.38-1.66-4.13-3.31c-0.71-1.55-0.42-3.4-1.11-4.95c-1.45-3.25-5.96-3.32-9.49-2.89
			c-1.73,7.02-9.18,10.52-15.96,13.03c-10.61,3.91-21.36,7.86-32.6,9.03c-2.4,0.25-4.97,0.43-6.86,1.92
			c-3.21,2.51-2.99,7.34-2.48,11.37C558.92,976.75,560.42,978.16,561.37,978.44z"/>
		<path class="st28" d="M859.39,569.83c-4.45,10.14-9.14,20.18-14.07,30.1c-45.92,12.36-91.45,20.09-138.75,25.02
			c-28.86,3.01-49.65,5.9-76.42,17.11c-3.07,1.28-6.17,2.75-8.45,5.17c-2.72,2.89-3.98,6.83-4.95,10.67
			c-6.27,24.87-12.23,49.86-13.51,75.48c-0.66,13.36-2.46,26.64-3.69,39.96c-3.87,42.1-2.04,84.5-0.2,126.74
			c21.95,5.25,46.09,3.07,68.2-1.41c0.63-8.55-0.4-19.33,2.71-27.93c3.1-8.6,5.01-49.52,2.17-61.11
			c-5.86-23.89,0.73-62.99,9.16-86.11c24.2,4.46,54.63-2.21,78.9-6.25c43.47-7.24,76.54,4.1,120.47,0.58
			c29.58-2.37,59.71-5.72,86.66-18.13c5.89-2.71,11.94-6.19,14.83-12c1.86-3.75,2.19-8.05,2.41-12.23
			c1.74-32.89-0.96-66.02-8.01-98.19c-0.52-2.36-1.14-4.85-2.89-6.51c-1.76-1.66-4.29-2.13-6.67-2.52
			c-16.09-2.61-32.29-4.52-48.55-5.72c-18.21-1.34-37.16-1.66-53.94,5.55C865.41,572.53,859.39,569.83,859.39,569.83z"/>
		<g>
			<g>
				<path class="st29" d="M678.45,717.4c-5.32-6.75-12.19-12.61-20.05-16.17c-0.27-0.12-0.51,0.25-0.24,0.41
					c3.75,2.13,7.39,4.47,10.73,7.21c3.31,2.71,6.35,5.76,9.04,9.08C678.23,718.29,678.73,717.76,678.45,717.4L678.45,717.4z"/>
			</g>
		</g>
		<g>
			<g>
				<path class="st29" d="M684.48,720.25c-1.31-5.2-2.59-10.42-4.06-15.58c-0.08-0.27-0.48-0.16-0.42,0.11
					c1.16,5.24,2.52,10.44,3.84,15.64C683.94,720.84,684.58,720.66,684.48,720.25L684.48,720.25z"/>
			</g>
		</g>
		<path class="st25" d="M836.48,279.74c3.94,7.24,12.19,11.9,20.42,11.52c3.91-0.18,8.81-0.94,10.84,2.4
			c0.82,1.36,0.85,3.04,0.9,4.63c0.18,6.27,1.06,12.53,2.6,18.61c0.26,1.03,0.56,2.1,1.29,2.88c0.94,1.02,2.4,1.34,3.76,1.58
			c14.68,2.58,29.98,1.59,44.21-2.84c-2.01-9.73,0.14-19.77,0.85-29.68c2.39-33.59-13.65-67.61-40.2-88.09
			c-9.27-7.14-25.54-19.1-36.88-9.85c-10.36,8.45-12.45,27.25-17.63,38.84c-1.84,4.12-6.71,9.81-5.31,14.44
			c0.97,3.18,6.05,6.2,7.73,9.49C833.19,261.8,832.08,271.65,836.48,279.74z"/>
		<path class="st29" d="M853.88,206.54c-10.1,1.86-21.29,2.47-29.86-3.19c-8.01-5.29-12.08-15.9-9.67-25.19
			c2.41-9.29,11.12-16.58,20.69-17.31c4.21-0.32,8.48,0.5,12.64-0.21c7.1-1.22,12.65-6.66,19.18-9.71
			c11.12-5.2,25.39-2.64,34.02,6.09c12.81-2.8,26.25,2.31,36.76,10.14c6.43,4.79,12.4,10.59,15.55,17.97
			c6.41,15.04-0.3,32.14-6.96,47.07c-6.01,13.48-12.02,26.97-18.03,40.45c-2.17,4.86-4.51,9.95-8.82,13.08
			c-6.31,4.58-14.92,3.72-22.62,2.49c-7.87-1.26-16.74-3.4-20.57-10.38c-4.72-8.62,0.88-19.93-2.99-28.97
			c-2.81-6.55-9.8-10.13-14.59-15.41C852.01,226.16,850.53,215.79,853.88,206.54z"/>
		<path class="st26" d="M532.11,932.63c-2.08,12.91-2.7,26.05-1.82,39.1c0.54,8.05,1.62,16.31-0.6,24.07
			c-10.32-1.86-20.54-3.97-30.5-7.28c-0.41-0.13-0.77-0.81-0.34-0.82c4.02-6.84,5.74-14.37,5.66-22.31
			c-0.08-7.94-1.58-15.79-3.09-23.59c-1.19-6.19-2.39-12.39-3.58-18.58c11.4-0.95,22.88-0.83,34.26,0.36
			C532.49,925.56,532.44,930.63,532.11,932.63z"/>
		<path class="st27" d="M439.61,1014.95c11.15,3.28,22.99,3,34.6,2.69c5.65-0.15,11.59-0.38,16.42-3.33
			c1.86-1.13,3.57-2.67,5.7-3.08c3.71-0.71,7.01,2.15,10.32,3.95c6.52,3.54,14.38,3.17,21.79,2.71c1.2-0.07,2.5-0.2,3.36-1.04
			c0.72-0.71,0.95-1.77,1.14-2.77c0.88-4.81,1.22-15.58,1.56-20.46c0.27-3.84-0.18-8.62-3.71-10.15c-1.43-0.62-5.11,4.78-16.67,2.89
			c-1.9-0.31-3.59-1.77-4.39-3.52c-0.75-1.64-0.44-3.62-1.18-5.27c-1.54-3.45-6.34-3.53-10.09-3.07
			c-1.84,7.47-9.76,11.19-16.98,13.85c-11.28,4.16-22.71,8.36-34.67,9.61c-2.55,0.27-5.28,0.46-7.3,2.04
			c-3.41,2.67-3.18,7.8-2.63,12.09C437.01,1013.15,438.6,1014.65,439.61,1014.95z"/>
		<path class="st30" d="M756.56,580.4c-4.74,10.79-9.73,21.46-14.96,32.01c-48.84,13.14-97.26,21.36-147.56,26.6
			c-30.7,3.2-52.8,6.28-81.27,18.2c-3.26,1.37-6.56,2.92-8.98,5.5c-2.89,3.07-4.24,7.26-5.27,11.35
			c-6.66,26.45-13.01,53.02-14.36,80.27c-0.71,14.21-2.62,28.33-3.92,42.5c-4.12,44.77-2.17,89.86-0.21,134.78
			c23.34,5.58,49.01,3.26,72.53-1.5c0.67-9.09-0.42-20.56,2.88-29.7c3.3-9.14,5.33-52.66,2.3-64.99
			c-6.23-25.41,0.78-66.99,9.74-91.57c25.73,4.75,58.1-2.35,83.91-6.65c46.23-7.7,81.4,4.36,128.12,0.62
			c31.46-2.52,63.5-6.09,92.16-19.28c6.27-2.88,12.7-6.58,15.77-12.76c1.98-3.98,2.33-8.56,2.56-13
			c1.85-34.98-1.02-70.21-8.52-104.43c-0.55-2.51-1.21-5.16-3.07-6.92c-1.87-1.76-4.56-2.27-7.09-2.68
			c-17.11-2.78-34.34-4.81-51.63-6.08c-19.36-1.42-39.52-1.76-57.36,5.9C762.96,583.27,756.56,580.4,756.56,580.4z"/>
		<g>
			<g>
				<path class="st29" d="M564.12,737.33c-4.42-5.61-9.78-10.51-15.86-14.27c-1.76-1.09-3.58-2.07-5.47-2.93
					c-0.29-0.13-0.54,0.27-0.25,0.43c6.21,3.53,11.97,7.66,16.98,12.77c1.42,1.45,2.77,2.97,4.05,4.55
					C563.89,738.28,564.43,737.72,564.12,737.33L564.12,737.33z"/>
			</g>
		</g>
		<g>
			<g>
				<path class="st29" d="M570.54,740.37c-1.4-5.53-2.75-11.08-4.32-16.57c-0.08-0.28-0.51-0.17-0.44,0.12
					c1.23,5.58,2.68,11.1,4.08,16.64C569.97,740.99,570.65,740.81,570.54,740.37L570.54,740.37z"/>
			</g>
		</g>
		<path class="st29" d="M936.58,319.74c-4.81-2.59-7.12-9.06-12.44-10.3c-2.13-0.5-4.34-0.02-6.48,0.45
			c-15.48,3.38-32.21,6.17-46.7-0.25c-1.51-0.67-3.28-1.43-4.72-0.63c-0.87,0.48-1.36,1.41-1.82,2.3c-1.5,2.95-3.01,5.9-4.51,8.84
			c-21.63-0.29-43.26,1.55-63.01,10.39c-9.49,4.25-17.99,10.42-26.1,16.93c-32.8,26.3-60.33,58.45-90.49,87.73
			c-6.1,5.93-12.54,11.88-20.48,14.92c-43.5,16.67-85.7,26.5-131.88,32.68c-2.74,0.37-5.8,0.89-7.44,3.12
			c-1.52,2.05-1.32,4.85-1.05,7.39c0.52,4.97,1.05,9.95,1.57,14.92c0.49,4.71,2.83,10.67,7.16,12.61c4.32,1.94,9.27,1.65,14,1.31
			c45.47-3.34,86.97-9.11,131.99-16.32c14.9-2.39,29.57-8.48,43.82-13.46c23.11-8.08,43.56-22.17,63.69-36.1
			c1.77,13.07,1.34,26.03-3.17,38.43c-7.81,21.51-24.66,40.08-26.36,62.9c-0.6,8.11,0.79,16.24,2.54,24.19
			c49.12,14.34,102.93,10.68,153.97,6.97c3.52-0.26,7.16-0.54,10.27-2.21c3.79-2.03,6.28-5.81,8.44-9.53
			c7.12-12.27,12.48-25.56,15.85-39.35c5.42-22.18,6.1-46.5,19.19-65.2c9.34-13.34,6.21-8.08,14.28-22.22
			c11.9-20.86,11.74-73.27,0.9-94.69C971.8,344.1,949.4,319.66,936.58,319.74z"/>
		<g>
			<g>
				<g>
					<path class="st30" d="M929.89,324.98c-8.2,2.1-16.44,4.25-24.84,5.42c-7.98,1.12-16.17,1.32-24.11-0.25
						c-4.37-0.86-8.47-2.35-12.52-4.19c-0.27-0.12-0.51,0.25-0.24,0.41c3.39,1.92,7.2,3.15,10.98,4.03
						c3.83,0.89,7.76,1.35,11.69,1.49c8.39,0.29,16.74-1,24.9-2.82c4.79-1.07,9.52-2.37,14.25-3.67
						C930.26,325.32,930.15,324.92,929.89,324.98L929.89,324.98z"/>
				</g>
			</g>
			<g>
				<g>
					<path class="st30" d="M836.31,323.79c7.48,9.19,11.46,21.07,11.28,32.9c-0.05,3.34-0.41,6.67-1.1,9.94
						c-0.08,0.4,0.52,0.57,0.61,0.17c2.7-11.76,0.83-24.4-4.79-35.05c-1.57-2.98-3.44-5.78-5.58-8.39
						C836.49,323.06,836.06,323.49,836.31,323.79L836.31,323.79z"/>
				</g>
			</g>
			<g>
				<g>
					<path class="st30" d="M842.24,375.72c-2.36,6.13-4.74,12.26-7.68,18.14c-2.65,5.3-5.79,10.35-9.27,15.14
						c-6.86,9.44-15.06,17.83-23.6,25.75c-4.86,4.5-9.91,8.78-14.75,13.3c-0.31,0.28,0.14,0.7,0.45,0.45
						c4.58-3.74,8.98-7.7,13.33-11.7c4.35-4,8.61-8.1,12.67-12.39c8.07-8.53,15.38-17.86,20.74-28.34
						c3.34-6.52,5.96-13.38,8.54-20.23C842.77,375.57,842.34,375.46,842.24,375.72L842.24,375.72z"/>
				</g>
			</g>
			<g>
				<g>
					<path class="st30" d="M667.68,449.23c3.16,3.78,6.31,7.56,9.55,11.28c0.24,0.28,0.63-0.12,0.4-0.4
						c-3.08-3.85-6.25-7.62-9.42-11.41C667.9,448.32,667.37,448.86,667.68,449.23L667.68,449.23z"/>
				</g>
			</g>
			<g>
				<g>
					<path class="st30" d="M665.19,451.5c0.86,5.19,1.11,10.45,0.82,15.7c-0.02,0.43,0.64,0.43,0.67,0
						c0.34-5.31,0.03-10.63-0.84-15.87C665.76,450.9,665.12,451.08,665.19,451.5L665.19,451.5z"/>
				</g>
			</g>
		</g>
	</g>
	<g>
		<g>
			<g>
				<path class="st31" d="M733.45,731.46c-12.78,10.91-22.24,25.23-29.64,40.18c-7.79,15.74-13.56,32.45-18.17,49.38
					c-5.01,18.38-8.34,37.18-11.81,55.9c-4.31,23.29-8.25,46.64-11.91,70.04c-3.63,23.22-6.89,46.49-9.83,69.8
					c-0.36,2.88-0.72,5.75-1.08,8.63c-0.17,1.41,2.03,1.39,2.2,0c2.99-23.29,6.29-46.55,9.82-69.76
					c3.52-23.13,7.34-46.21,11.46-69.24c3.48-19.46,6.85-38.97,11.42-58.21c4.02-16.9,9.05-33.69,16.11-49.59
					c6.86-15.45,15.63-30.46,27.74-42.41c1.41-1.39,2.88-2.74,4.38-4.04C734.61,731.74,733.92,731.06,733.45,731.46L733.45,731.46z"
					/>
			</g>
		</g>
		<g>
			<g>
				<path class="st31" d="M820.03,738.15c-11.81,13.7-20.12,29.93-25.96,46.97c-6,17.51-9.63,35.73-12.5,53.99
					c-3.31,21.09-5.82,42.33-8.28,63.53c-2.59,22.41-4.92,44.86-6.98,67.32c-2.05,22.36-3.78,44.75-5.24,67.16
					c-0.18,2.84-0.36,5.68-0.54,8.52c-0.1,1.53,2.27,1.52,2.38,0c1.5-22.21,3.28-44.4,5.22-66.57c1.95-22.27,4.16-44.52,6.63-66.74
					c2.41-21.67,5-43.31,7.89-64.92c2.43-18.19,5.21-36.43,10.35-54.08c5.08-17.44,12.4-34.36,23.36-48.95
					c1.41-1.88,2.89-3.71,4.41-5.5C821.21,738.38,820.48,737.64,820.03,738.15L820.03,738.15z"/>
			</g>
		</g>
		<g>
			<g>
				<path class="st31" d="M978.08,732.38c12.82,12.79,22.29,28.4,29.36,44.99c7.23,16.97,11.96,34.92,16.01,52.89
					c4.67,20.75,8.91,41.6,13.06,62.46c4.39,22.07,8.52,44.18,12.38,66.35c3.85,22.06,7.51,44.16,10.91,66.29
					c0.42,2.74,0.84,5.48,1.25,8.23c0.23,1.51,2.51,0.86,2.29-0.63c-3.25-22.37-6.75-44.7-10.6-66.97
					c-3.85-22.27-7.96-44.49-12.33-66.65c-4.23-21.46-8.57-42.94-13.55-64.24c-4.2-17.96-9.01-35.82-15.9-52.96
					c-6.65-16.57-15.44-32.41-27.5-45.67c-1.5-1.65-3.06-3.26-4.65-4.82C978.34,731.16,977.6,731.9,978.08,732.38L978.08,732.38z"/>
			</g>
		</g>
		<path class="st32" d="M691.84,710.45c9.71-9.21,22.85-13.78,35.75-17.36c12.37-3.43,24.93-6.2,37.6-8.29
			c6.07-1,12.38-1.92,17.55-5.27c8.15-5.28,11.61-15.3,14.22-24.65c9.96-35.74,15.36-72.58,23.86-108.69
			c8.5-36.12,20.4-72.1,41.8-102.41c21.4-30.31,53.42-54.57,90.12-60.04c10.99-1.64,22.45-1.55,32.96,2.05
			c28.68,9.81,42.65,41.91,49.83,71.36c16.23,66.58,14.7,136.03,13.08,204.53c-0.45,19.16-1.56,40.07-14.26,54.42
			c-15.69,17.72-42.53,18.59-66.19,18.55c-58.36-0.1-116.7,2.32-174.96,5.72c-28.86,1.68-57.7,3.59-86.54,5.58
			c-13.31,0.92-24.5,6.22-26.57-9.37C678.85,727.33,685.46,716.51,691.84,710.45z"/>
		<g>
			<g>
				<path class="st33" d="M946.08,387.86c-22.04,9.5-40.22,25.34-53.97,44.9c-7.11,10.11-13.03,21.02-18.09,32.29
					c-6.04,13.45-11.23,27.3-15.61,41.39c-9.01,28.98-14.4,58.97-16.25,89.26c-1.87,30.54-1.23,61.5-9.73,91.19
					c-2.75,9.62-6.46,19.15-12.54,27.19c-6.01,7.95-14.12,13.82-23.02,18.16c-2.69,1.31-5.43,2.48-8.22,3.56
					c-0.61,0.24-0.35,1.24,0.27,1c9.51-3.71,18.72-8.55,26.1-15.71c6.72-6.52,11.43-14.65,14.8-23.32
					c10.37-26.73,11.12-56.1,12.3-84.37c0.66-15.73,1.59-31.41,3.75-47.01c2.08-15.01,5.07-29.89,8.95-44.53
					c3.88-14.65,8.64-29.06,14.26-43.12c4.97-12.43,10.55-24.63,17.51-36.09c12.64-20.81,29.79-38.75,51.42-50.24
					c2.73-1.45,5.51-2.78,8.34-4.03C946.7,388.21,946.41,387.72,946.08,387.86L946.08,387.86z"/>
			</g>
		</g>
	</g>
	<g>
		<path class="st34" d="M781.61,150.49l-144.19,6.8c-3.06,0.14-5.66-2.22-5.81-5.29l-2.61-55.38c-0.14-3.06,2.22-5.66,5.29-5.81
			l144.19-6.8c3.06-0.14,5.66,2.22,5.81,5.29l2.61,55.38C787.05,147.74,784.68,150.34,781.61,150.49z"/>
		<g>
			<path class="st35" d="M693.48,122.13c0.06,1.17-0.85,2.17-2.03,2.23c-1.17,0.06-2.17-0.85-2.23-2.03
				c-0.06-1.17,0.85-2.17,2.03-2.23C692.43,120.05,693.43,120.96,693.48,122.13z"/>
			<path class="st35" d="M710.12,121.35c0.06,1.17-0.85,2.17-2.03,2.23c-1.17,0.06-2.17-0.85-2.23-2.03
				c-0.06-1.17,0.85-2.17,2.03-2.23C709.07,119.27,710.06,120.17,710.12,121.35z"/>
			<path class="st35" d="M726.76,120.56c0.06,1.17-0.85,2.17-2.03,2.23c-1.17,0.06-2.17-0.85-2.23-2.03
				c-0.06-1.17,0.85-2.17,2.03-2.23C725.7,118.48,726.7,119.39,726.76,120.56z"/>
		</g>
		<circle class="st34" cx="751.92" cy="154.06" r="11.57"/>
		<path class="st34" d="M775.63,171.54c0,4.36-3.53,7.89-7.89,7.89c-4.36,0-7.89-3.53-7.89-7.89c0-4.36,3.53-7.89,7.89-7.89
			C772.1,163.65,775.63,167.18,775.63,171.54z"/>
		<path class="st34" d="M785.64,184c0,2.27-1.84,4.11-4.11,4.11s-4.11-1.84-4.11-4.11s1.84-4.11,4.11-4.11S785.64,181.73,785.64,184
			z"/>
	</g>
</g>
</svg>
